<svg width="100%" height="100%" xmlns="http://www.w3.org/2000/svg" viewBox="0 0 2560 766">
<path class="cls-1" d="M806.95,383c0,196.14-160.09,360.55-374.98,360.55S57,579.14,57,383,217.09,22.45,431.98,22.45s374.98,164.41,374.98,360.55h-.01ZM665.62,383c0-138.45-98.07-242.29-233.64-242.29s-233.64,105.28-233.64,242.29,98.07,242.3,233.64,242.3,233.64-103.84,233.64-242.3ZM1049.25,401.76v312.95h-141.34v-312.95c0-248.07,158.64-379.32,373.53-379.32s376.41,131.25,376.41,379.32v312.95h-141.34v-312.95c0-165.86-98.07-253.84-235.08-253.84s-232.2,87.97-232.2,253.84h.02,0ZM2503,440.7c-25.96,165.85-173.06,302.86-370.65,302.86-214.89,0-373.53-164.41-373.53-360.55S1917.47,22.46,2132.35,22.46c193.26,0,344.69,134.13,370.65,302.87h-141.34v115.38h141.34ZM2361.66,325.32c-20.19-103.84-109.6-184.6-229.31-184.6s-203.35,76.45-226.43,184.6h455.74ZM1905.92,440.7c21.64,106.73,106.73,184.6,226.43,184.6s209.12-80.76,229.31-184.6h-455.74Z"/>
</svg>