<svg width="100%" height="100%" xmlns="http://www.w3.org/2000/svg" viewBox="0 0 2208 1168">
<style>
.cls-1-black,
.cls-4-black {
    fill: black;
}

.cls-1, .cls-2, .cls-3, .cls-4 {
stroke-width: 0px;
}

</style>
<g>
<path fill="none" class="cls-3" d="M1018.75,754.92c-30.45,0-52.64,22.96-54.45,54.45h109.15c-2.06-31.48-24.51-54.45-54.71-54.45Z"/>
<path class="cls-1-black" d="M1081.46,814.01c0-39.22-27.09-66.83-62.7-66.83s-62.96,28.13-62.96,67.87c0,18.71,6.3,34.85,17.09,46.69.88-2.63,2.61-4.87,4.69-6.94-8.35-10-13.29-23.19-13.51-38.46h117.41v-2.32ZM964.31,809.36c1.81-31.48,24-54.45,54.45-54.45s52.64,22.96,54.71,54.45h-109.15Z"/>
<path class="cls-1-black" d="M451.76,816.33h117.41v-2.32c0-39.22-27.09-66.83-62.7-66.83s-62.96,28.13-62.96,67.87c0,18.71,6.3,34.85,17.09,46.69.88-2.63,2.61-4.87,4.69-6.94-8.35-10-13.29-23.19-13.51-38.46ZM506.46,754.92c30.19,0,52.64,22.96,54.71,54.45h-109.15c1.81-31.48,24-54.45,54.45-54.45Z"/>
<path class="cls-1-black" d="M1630.04,755.17c29.16,0,46.19,16.77,46.19,48.77v56.52l8.51-8.03v-49c0-36.9-21.16-56.25-53.93-56.25-27.09,0-46.45,13.16-54.96,33.8v-32.77h-8.26v133.92h8.51v-72.25c0-33.03,20.39-54.7,53.93-54.7Z"/>
<path class="cls-1-black" d="M260.89,755.17c29.16,0,46.19,16.77,46.19,48.77v56.52l8.51-8.03v-49c0-36.9-21.16-56.25-53.93-56.25-27.09,0-46.45,13.16-54.96,33.8v-32.77h-8.26v133.92h8.51v-72.25c0-33.03,20.39-54.7,53.93-54.7Z"/>
<polygon class="cls-1-black" points="1825.29 846.24 1825.29 748.21 1816.78 748.21 1816.78 854.28 1825.29 846.24"/>
<polygon class="cls-1-black" points="1435.83 838.39 1435.83 748.21 1427.31 748.21 1427.31 846.42 1435.83 838.39"/>
<path class="cls-1-black" d="M1234.39,858l8.52-8.04v-94.27h44.12v-7.48h-44.12v-22.71c0-18.32,8.77-28.13,26.32-28.13,8.26,0,16,2.84,21.68,8l4.39-6.45c-6.45-6.19-16.77-9.03-26.58-9.03-21.93,0-34.32,13.68-34.32,34.58v23.74h-25.29v7.48h25.29v102.31Z"/>
<path class="cls-1-black" d="M762.09,882.9c.86,0,1.7-.06,2.56-.09l9.24-8.72c-3.71.7-7.56,1.07-11.54,1.07-32.77,0-57.29-24.51-57.29-60.12s24.51-59.87,57.29-59.87,57.29,24.25,57.29,59.87c0,6.41-.81,12.45-2.3,18.06l10.81-10.2v-132.23h-8.51v93.41c-10.06-22.96-31.74-36.9-57.54-36.9-37.16,0-65.54,27.87-65.54,67.87s28.38,67.86,65.54,67.86Z"/>
<path class="cls-1-black" d="M1957.93,848.58c0,8.14,1.83,15.13,5.34,20.65l6.46-6.09c-2.16-4.26-3.28-9.56-3.28-15.85v-91.6h44.12v-7.48h-44.12v-29.42h-8.52v29.42h-25.29v7.48h25.29v92.89Z"/>
<path class="cls-4-black" d="M1439.96,704.6c0,4.64-3.87,8.52-8.51,8.52s-8.52-3.87-8.52-8.26c0-4.64,3.87-8.51,8.52-8.51s8.51,3.87,8.51,8.26Z"/>
<path class="cls-4-black" d="M1812.39,704.86c0-4.64,3.87-8.51,8.51-8.51s8.52,3.87,8.52,8.26c0,4.64-3.87,8.52-8.52,8.52s-8.51-3.87-8.51-8.26Z"/>
</g>
<path class="cls-1-black" d="M196,521.51c0-81.3,61.87-141.19,145.55-141.19,40.45,0,76.94,13.48,101.53,40.45l-18.64,18.64c-22.61-23-50.37-32.92-82.1-32.92-67.03,0-117.39,49.18-117.39,115.02s50.37,115.02,117.39,115.02c31.73,0,59.49-9.91,82.1-33.31l18.64,18.64c-24.59,26.97-61.08,40.85-101.93,40.85-83.29,0-145.16-59.89-145.16-141.19Z"/>
<path class="cls-1-black" d="M512.96,521.51c0-80.91,61.87-141.19,145.95-141.19s145.55,59.89,145.55,141.19-62.27,141.19-145.55,141.19-145.95-60.28-145.95-141.19ZM775.11,521.51c0-66.23-49.58-115.02-116.21-115.02s-117,48.78-117,115.02,49.97,115.02,117,115.02,116.21-48.78,116.21-115.02Z"/>
<g>
<path class="cls-1-black" d="M896.81,376.5v283.83h29.35v-202.4c-11.23-26.57-20.65-53.74-29.11-81.43h-.24Z"/>
<path class="cls-1-black" d="M1089.42,676.35v-299.85h-29.35l.23,266.32c9.54,12.64,19.19,25.2,28.88,37.73l.23-4.2Z"/>
</g>
<path class="cls-1-black" d="M1268.38,408.09h-97.56v-25.38h224.48v25.38h-97.56v252.24h-29.35v-252.24Z"/>
<path class="cls-1-black" d="M1453.99,541.74v-159.04h29.35v157.85c0,65.84,30.93,95.98,84.87,95.98s85.27-30.14,85.27-95.98v-157.85h28.56v159.04c0,79.72-42.84,120.96-113.83,120.96s-114.22-41.25-114.22-120.96Z"/>
<path class="cls-1-black" d="M1979.87,660.33l-63.46-89.24c-7.14.79-14.28,1.19-22.21,1.19h-74.56v88.05h-29.35v-277.62h103.91c70.6,0,113.43,35.69,113.43,95.19,0,43.63-23,74.16-63.46,87.25l67.82,95.19h-32.13ZM1978.29,477.89c0-44.42-29.35-69.8-84.87-69.8h-73.77v139.21h73.77c55.52,0,84.87-25.78,84.87-69.41Z"/>
<path fill="#e8b32a" class="cls-2" d="M1089.49,680.36c-43.46-71.96-90.25-77.29-128.21-163.23-14.86-33.63-35-98.04-39.31-110.84-23.2-68.75-14.46-39.09-19.84-59.48-41.18-156.2-411.26-138.89-366.92-306.68h0c-1.56,8.1-2.95,16.28-4.71,24.29-21.75,99.28,343.67,173.92,359.72,272.82,5.85,36.04-2.41,19.52,15.95,79.13l19.99,43.87c9.16,30.63,19.52,60.72,31.58,90.18,36.6,89.38,96.34,95.06,131.68,153.19,4.12,6.78,20.89,44.22,25.16,51.29,16.15,26.71,43.61,53.58,63.16,89.47,8.45,15.51,111.7,111.01,208.72,182.89,11.99,8.88,84.17,14.67,95.06,21.39.46-2.02-.48,2.09,0,.07.26-1.12-3.91,2.68-3.63,1.59-53.48-4.75-113.2-25.67-150.32-58.83-73.9-66-137.33-130.89-151.11-156.14-14.33-26.24-35.57-64.83-49.97-91.13-9.69-17.7-19.58-32.14-29.12-50.01-2.61-4.89-5.23-9.49-7.87-13.86"/>
</svg>