<svg width="100%" height="100%" xmlns="http://www.w3.org/2000/svg" viewBox="0 0 1056 1556" >
<path class="cls-1" d="M430.52,973.09l-.06-.25c-.08.5-.2.97-.38,1.39-.81,1.88-1.45,1.98-1.96,1.04,9.05,53.11,52.5,116.8,69.82,177.5,5.08,17.79,5.95,41.28,6.14,59.09.64,59.49-1.45,169.33-5.81,228.14h1.82c3.76-36.93,5.45-124.37,6.23-161.96,1.22-58.9,1.81-89.76-4.06-116.68-4.81-22.07-14.47-41.6-27.43-70.84l-29.3-63.75-10.64-31.08c-1.57-4.58-2.85-10.17-3.76-15.46l-.57-8.26c-.01.27-.04.53-.08.79.02.11.03.22.05.34Z"/>
<path class="cls-1" d="M100.57,169.19c4.74,11.21,10.09,22.22,16.33,33,18.93,32.7,34.65,51.11,52.93,72.39,2.13,2.48,4.29,5,6.51,7.58,8.36,9.77,17.34,20.49,27.45,33.62,4.91,6.38,64.13,104.37,94.62,154.15.24-.74.46-1.48.71-2.22.14-.41.29-.8.43-1.2-31.03-51.21-81.72-141.67-92.43-155.54-7.41-9.6-14.9-19.18-22.35-28.8-5.01-6.48-10-12.97-14.94-19.51-23.6-31.27-30.27-39.29-51.1-72.64-7.68-12.31-18.1-35.87-20.33-40.56-12-25.16-7.48-14.3-10.26-21.76-21.3-57.16-24.53-66.29-1.59-127.68h-10.29c-.81,2.96-1.53,5.96-2.44,8.89-11.25,36.33-7.54,70.93.76,107.12,3.03,13.19,6.15,15.31,15.65,37.12l10.34,16.05Z"/>
<g>
<path class="cls-1" d="M539.13,490.03c-14.61-31.56-38.51-52.83-73.38-59.6-26.91-5.23-54.11-4.21-81.23-1.52-20.23,2.01-40.14,5.56-59.42,12.36-12.71,4.49-21.07,12.72-25.56,25.23-.14.4-.3.79-.43,1.2-.24.74-.47,1.48-.71,2.22-10.32,32.03-14.7,65.94-14.26,99.17.3,22.86,7.88,43.9,16.6,65,5.66,13.69,11.8,27.18,17.61,40.81,4.43,10.38,9.15,20.72,9.28,32.33.09,8.43-.66,16.68-7.05,23.11-3.42,3.44-7.81,4.37-12.25,2.9-4.51-1.49-2.54-5.63-2.46-8.72.3-12.42-7.97-18.3-19.44-13.34-10.21,4.41-15.94,12.6-17.68,23.43-2.25,13.98-.6,27.76,2.61,41.46.42,1.8.06,4.78-1.14,5.81-11,9.45-23.47,13.62-37.69,8.4-10.1-3.71-19.41-1.64-28.62,2.68-21.36,10.02-40.77,23.16-59.44,37.43-2.74,2.09-5.13,4.92-6.98,7.85-5.39,8.55-1.46,15.38,9.12,15.91,1.08.05,2.17-.03,3.25-.12,8.42-.72,17.77,2.27,26.19,1.59,23.6-1.9,46.1-6.97,69.51-.89,9.19,2.39,19.21,2.17,28.85,2.14,11.44-.03,22.89-1.76,34.31-1.6,11.61.16,23.23,1.44,34.78,2.78,7.05.81,9.36,4.79,7.22,11.65-1.25,4-2.99,7.95-5.14,11.55-13.2,22.09-33.83,32.65-58.5,35.07-16.08,1.58-32.39.91-48.6,1.02-13.44.09-26.21-3.09-38.41-8.66-16.16-7.38-30.85-17.07-44.39-28.5-10.29-8.69-21.76-15.09-35.01-17.75-22.22-4.47-44.61-3.5-66.95-1.22-10.95,1.12-21.58,3.9-30.75,10.42-8.6,6.12-11.99,14.38-9.6,24.92,2.22,9.79,7.74,17.72,13.95,25.22,12.81,15.5,27.27,29.19,42.63,41.9-10.45-10.5-20.61-21.44-31.02-32.41-9.12-9.6-17.86-19.55-22.49-32.37-3.61-9.99.73-21.17,10.05-26.24,5.45-2.97,11.47-5.26,17.52-6.73,20.66-5.04,41.02-1.67,61.97-.47,18.73,1.08,35.63,6.09,49.99,18.37,8.39,7.18,17.83,13.26,27.26,19.09,19.98,12.34,41.57,19.04,65.41,17.08,7.37-.61,14.8-.49,22.19-.85,8.91-.43,18.05.09,26.69-1.74,23.47-4.96,42-17.42,53.06-39.48.6-1.2,1.1-2.45,1.52-3.72,3.84-11.6,1.59-17.29-7.63-18.69-21.88-3.33-43.79-4.34-65.92-1.86-9.15,1.03-18.96,1.38-27.78-.78-26.72-6.53-53.46-6.2-80.45-3.41-7.89.82-15.83,1.58-23.75,1.62-2.79.01-6.92-1.54-8-3.63-1.07-2.07.24-6.17,1.77-8.58,2.02-3.19,4.89-6.16,8.04-8.27,15.08-10.1,30.25-20.09,45.65-29.72,13.64-8.53,27.93-12.74,44.22-6.91,9.07,3.24,18.11.94,26.01-4.97,2.72-2.04,5.75-3.67,8.71-5.54,0,0,0,0,0,0,2.98,6.23,4.95,12.02,8.25,16.93,16.16,24.07,38.9,39.43,66.24,48.14,4.24,1.35,9.09,1.36,13.61,1.16,7.36-.32,9.04-4,4.93-10.01-1.39-2.03-2.95-3.99-4.68-5.73-18.33-18.32-39.66-32.78-61.03-47.18-7.54-5.08-15.17-9.94-25.37-7.07,0,0,0,0,0,0-4.15-16.81-6.82-33.07-2.41-49.61,1.95-7.31,6.85-12.63,13.69-16.02,10.67-5.29,17.74-.55,17.01,11.38-.07,1.06-.2,2.11-.18,3.17.07,5.02,2.28,7.38,7.33,7.9,6.4.65,12.75-3.18,16.11-9.91,3.91-7.85,5.55-16.46,3.14-24.7-3.84-13.13-8.26-26.22-13.86-38.69-14.18-31.58-26.43-63.42-26.2-98.88.19-30.45,1.93-60.58,9.99-90.16.15-.57.33-1.11.49-1.66,8.6,14.03,14.63,23.74,16.01,25.64-1.38-.31,7.57,6.55,8.57,7.55,4.51,4.51,20.05,14.79,31.22,16.31,3.61.49,7.31-.08,10.52-1.82.71-.38,1.41-.73,2.11-1.07-2.06.2-4.17.37-6.35.49-13.2.71-31.34-14.04-41.54-19.55-3.18-4.47-10.24-15.86-19.41-30.97,5.02-13.81,14.2-23.1,29.29-27.01,1.19-.31,2.35-.74,3.54-1.08,38.84-11.06,78.43-13.62,118.5-10.16,20.13,1.74,38.59,7.9,54.26,21.28,14.59,12.45,27.04,26.38,32.45,45.34,4.09,14.33.09,26.14-11.47,35.27-24.92,21.36-45.27,30.6-71.06,40.32-39.27,14.8-72.21,17.11-116.72-2.81-4.89-1.88-10.73-4.33-11.29-10.1-.57-5.83,4.86-9.08,9.33-11.84,21.9-13.53,42.85-21.49,71.08-14.23,0,0,0,0,0,0,16.25,2.69,32,8.34,47.98,12.65,6.46,1.75,12.85,3.85,19.4,5.11,6.18,1.19,9.55-2.6,7.19-8.36-1.67-4.07-4.56-8.01-7.83-10.99-10.53-9.58-23.39-15.05-36.95-18.73-12.15-3.3-22.74-2.69-33.66-.9,3.28-.16,6.65-.37,10.16-.73,23.5-2.43,39.92,7.44,56.45,20.3,3.88,3.02,6.97,7.39,9.53,11.67,1.76,2.95.19,5.75-3.83,5.14-4.51-.68-9.02-1.6-13.39-2.9-12.68-3.76-25.18-8.12-37.93-11.59-28.88-7.86-57.02-5.75-83.8,8.08-4.99,2.58-9.58,6.34-13.55,10.36-3.85,3.9-3.58,9.83.66,13.3,3.17,2.6,6.75,5.04,10.55,6.54,28.49,11.19,58.1,15.56,88.25,10.28,37.3-6.53,69.39-24.89,99.45-47.28,16.42-12.23,19.44-28.66,11.42-45.99ZM275.86,782.8c5.29-2.83,9.99-1.68,14.04.77,24.77,14.97,48.36,31.59,69.24,51.76,2.79,2.7,4.72,6.28,7.05,9.45-.64,1.18-.72,1.33-1.36,2.51-5.82-.45-12.02.24-17.38-1.55-27.81-9.3-51.24-24.73-66.35-50.74-2.17-3.74-3.46-7.99-5.24-12.19,0,0,0,0,0,0Z"/>
<path class="cls-1" d="M405.16,512.84c-13.17.65-24.77.5-36.74,6.28,13.95-1.36,25.52-4.44,36.74-6.28Z"/>
<path class="cls-1" d="M246.1,1037.99c9.84-3.53,19.6-4.01,29.67-2.12,34.86,6.55,66.05-1.48,94.04-23.13,18.08-13.99,34.24-29.95,49.65-46.75,1.78-1.94,3.6-3.85,5.41-5.77.81.32.86.34,1.67.65,0,4.65.44,12.25,1.59,14.4.51.95,1.15.84,1.96-1.04.18-.42.3-.89.38-1.39l.06.25c-.02-.12-.03-.22-.05-.34.04-.25.06-.52.08-.79.06-1-.04-2.1-.22-3.24-.23-1.37-.59-2.78-1.01-4.13-.24-1.71-.47-3.27-.68-4.69,0,0,.01,0,.02,0,.49.03.81-.17,1.03-.5.83-1.26.08-4.62,1.28-6.09,7.33-9.05,14.91-17.91,22.49-26.75,17.44-20.34,32.74-41.96,42.32-67.29,8.02-21.23,13.45-43.1,16.78-65.46,2.39-16.04,4.16-32.18,5.71-48.33.58-6.04-.39-12.41-6.34-15.86-6.13-3.56-11.59-.15-16.7,3.12-2.51,1.61-5.07,3.37-7,5.6-6,6.91-17.24,13-22.25,20.6-22.27,33.79-28.65,72.31-35.12,111.81-4.32,26.37-5.15,53-5.22,79.68,0,2.42-.66,5.45-2.17,7.17-16.8,19.1-34.54,37.26-54.74,52.86-25.18,19.45-53.24,28.46-85.15,23.86-13.11-1.89-26.01-3.55-39.11,1.42-19.17,7.27-38.56,5.29-57.47-1.59-8.69-3.16-17.95-6.23-27.15-9.58,4.59,2.4,9.22,4.71,13.93,6.91,23.3,10.89,47.33,15.45,72.34,6.49ZM452.04,801.36c7.47-18.95,16.6-37.05,29.91-52.63,4.64-5.43,10.06-10.45,15.91-14.54,10.07-7.04,18.15-2.99,17.67,9.19-.54,13.87-2.29,27.73-4.18,41.51-4.03,29.44-10.67,58.2-23.02,85.46-8.98,19.83-21.97,36.88-35.78,53.42-6.33,7.58-12.73,15.09-19.03,22.69-1.19,1.43-2.06,3.13-3.08,4.7,0,0,0,0,0,0l-1.56-1.16s0,0,0,0c-.13-.8-.36-1.6-.37-2.4-.86-50.15,5.02-99.22,23.54-146.23Z"/>
<path class="cls-1" d="M159.83,1024.59c-23.27-12.15-45.08-26.69-66.18-42.37-8.07-6-16.01-12.15-23.73-18.54,15.66,15.74,32,30.49,50.95,42.81,11.53,7.49,25.19,13.11,38.96,18.11Z"/>
</g>
</svg>