<svg width="100%" height="100%" xmlns="http://www.w3.org/2000/svg" viewBox="0 0 2400 269">
<path class="cls-1" d="M54.94,258.42c2.31-.89,4.06-2.27,5.26-4.14,1.19-1.86,1.97-4.28,2.35-7.27.37-2.98.56-6.48.56-10.51V91.37l-8.27-19.68h31.08l70.22,166.38c-.6-4.32-.67-8.8-.22-13.42,1.04-9.69,4.02-18.79,8.94-27.28,4.92-8.5,10.36-17.07,16.32-25.72,3.58-5.37,7.19-10.85,10.85-16.44,3.65-5.59,7.01-11.48,10.06-17.67,3.05-6.18,5.66-12.78,7.83-19.79,2.16-7.01,3.61-14.54,4.36-22.59,0-3.13-.15-6-.45-8.61s-.97-4.84-2.01-6.71c-1.04-1.86-2.54-3.32-4.47-4.36-1.94-1.04-4.55-1.57-7.83-1.57v-2.24c6.41.45,11.74.78,15.99,1.01,4.25.22,8.31.33,12.19.33,4.17,0,8.5-.11,12.97-.33s10.14-.56,17-1.01v2.24c-3.28,0-5.89.49-7.83,1.45-1.94.97-3.43,2.35-4.47,4.14-1.04,1.79-1.72,3.99-2.01,6.6-.3,2.61-.45,5.48-.45,8.61v141.78c0,4.02.26,7.49.78,10.4.52,2.91,1.42,5.29,2.68,7.16,1.27,1.87,3.05,3.28,5.37,4.25,2.31.97,5.33,1.45,9.06,1.45v2.24c-5.22-.3-10.44-.52-15.65-.67-5.22-.15-10.21-.22-14.98-.22s-9.21.04-13.31.11c-4.1.08-7.64.19-10.62.34-3.58.15-6.79.3-9.62.45v-2.24c4.03,0,7.19-.56,9.5-1.68s4.06-2.76,5.26-4.92c1.19-2.16,1.97-4.84,2.35-8.05.37-3.2.56-6.82.56-10.85v-123.89c-2.39,10.44-5.81,19.98-10.29,28.62-4.47,8.65-9.24,16.77-14.31,24.38-5.07,7.6-10.03,14.91-14.87,21.91-4.85,7.01-8.76,14.17-11.74,21.47-2.98,7.31-4.66,14.91-5.03,22.81s1.45,16.47,5.48,25.72l2.68,6.71h-31.08L65.56,97.19v139.32c0,4.77.15,8.65.45,11.63.3,2.98,1.08,5.33,2.35,7.04,1.26,1.72,3.05,2.91,5.37,3.58,2.31.67,5.48,1.01,9.5,1.01v2.24c-3.88-.15-7.19-.26-9.95-.34-2.76-.07-5.44-.11-8.05-.11s-5.44.04-8.5.11c-3.06.08-6.82.19-11.29.34v-2.24c4.03,0,7.19-.45,9.5-1.34h0Z"/>
<path class="cls-1" d="M411.06,188.07c3.72,0,6.78-.52,9.17-1.57,2.38-1.04,4.17-2.61,5.37-4.7,1.19-2.09,2.01-4.73,2.46-7.94.45-3.2.67-6.97.67-11.29V23.7c0-3.28-.15-6.22-.45-8.83-.3-2.61-.97-4.84-2.01-6.71-1.04-1.86-2.54-3.32-4.47-4.36-1.94-1.04-4.55-1.57-7.83-1.57V0h148.71v.67l7.6,41.15-1.79.67c-5.52-7.6-10.88-13.98-16.1-19.12-5.22-5.14-10.92-9.28-17.11-12.41s-13.19-5.33-21.02-6.6c-7.83-1.26-16.96-1.9-27.39-1.9h-29.52v78.49h9.17c10.14,0,18.56-.52,25.27-1.57,6.71-1.04,12.26-2.72,16.66-5.03,4.4-2.31,7.86-5.44,10.4-9.39,2.53-3.95,4.7-8.83,6.48-14.65h1.34v63.51h-1.34c-2.68-5.51-5.37-10.21-8.05-14.09-2.68-3.87-6.08-7.04-10.17-9.5-4.1-2.46-9.36-4.25-15.76-5.37-6.41-1.12-14.69-1.68-24.82-1.68h-9.17v104.66h24.15c10.14,0,19.34-.63,27.62-1.9,8.27-1.26,15.88-3.5,22.81-6.71,6.93-3.2,13.38-7.56,19.34-13.08,5.96-5.51,11.78-12.45,17.44-20.8l1.57.45-7.6,44.5h-151.62v-2.24h-.01Z"/>
<path class="cls-1" d="M708.92,113.51c1.49-8.5,2.72-15.43,3.69-20.8.97-5.37,1.75-9.58,2.35-12.64.59-3.05,1.01-5.18,1.23-6.37s.34-1.86.34-2.01h190.75v.67l7.6,41.15c-.3.15-.48.22-.56.22s-.26.08-.56.22c-.3.15-.52.22-.67.22-4.77-7.3-9.32-13.53-13.64-18.67-4.33-5.14-9.06-9.28-14.2-12.41s-11.03-5.4-17.67-6.82c-6.64-1.42-14.65-2.12-24.04-2.12h-17.67v162.35c.15,7.9,1.3,13.75,3.47,17.55,2.16,3.8,6.89,5.7,14.2,5.7v2.24c-7.31-.3-13.34-.56-18.11-.78-4.77-.22-9.32-.33-13.64-.33-4.33-.15-8.91-.11-13.75.11-4.85.22-11,.56-18.45,1.01v-2.24c3.72,0,6.78-.52,9.17-1.57,2.38-1.04,4.17-2.61,5.37-4.7,1.19-2.09,2.01-4.73,2.46-7.94.45-3.2.67-6.97.67-11.29V74.16h-17c-9.39,0-17.41.71-24.04,2.12-6.64,1.42-12.52,3.69-17.67,6.82-5.14,3.13-9.92,7.27-14.31,12.41-4.4,5.14-8.91,11.37-13.53,18.67-.15,0-.37-.07-.67-.22s-.52-.22-.67-.22-.3-.07-.45-.22h0Z"/>
<path class="cls-1" d="M1009.47,188.51c4.32-2.38,7.94-5.48,10.85-9.28s5.55-8.39,7.94-13.75c11.63-28.92,22.06-55.16,31.31-78.72,4.02-9.99,7.94-19.86,11.74-29.63,3.8-9.76,7.27-18.63,10.4-26.61,3.13-7.97,5.77-14.65,7.94-20.01,2.16-5.37,3.47-8.72,3.91-10.06.15-.15.22-.3.22-.45h1.79l71.34,165.7c3.43,7.9,6.6,13.42,9.5,16.55s5.85,5.22,8.83,6.26v1.79c-5.81-.45-11-.74-15.54-.89-4.55-.15-8.98-.22-13.31-.22s-8.87.08-13.64.22c-4.77.15-10.29.45-16.55.89-7.46,0-13.61-1.9-18.45-5.7-4.85-3.8-9.02-8.5-12.52-14.09s-6.6-11.63-9.28-18.11c-2.68-6.49-5.59-12.41-8.72-17.78s-6.86-9.73-11.18-13.08c-4.33-3.36-9.77-4.81-16.32-4.36-1.94,5.07-3.84,9.95-5.7,14.65-1.87,4.7-3.58,9.06-5.14,13.08-1.57,4.02-2.98,7.6-4.25,10.73-1.27,3.13-2.28,5.67-3.02,7.6-2.09,5.52-2.43,10.62-1.01,15.32,1.42,4.7,5.33,8.02,11.74,9.95v1.79c-3.28-.3-6.11-.52-8.5-.67s-4.62-.22-6.71-.22c-2.83,0-5.59.08-8.27.22-2.68.15-5.81.37-9.39.67v-1.79h0ZM1081.03,38.68c-1.2,2.83-2.83,6.97-4.92,12.41-2.09,5.44-4.51,11.63-7.27,18.56s-5.7,14.28-8.83,22.03-6.19,15.43-9.17,23.03c5.66-.15,10.88,1.19,15.65,4.02,4.92,3.28,8.98,7.79,12.19,13.53,3.2,5.74,6.22,11.74,9.06,18,1.94,4.33,3.99,8.72,6.15,13.19s4.73,8.5,7.72,12.07c2.98,3.58,6.48,6.52,10.51,8.83s8.72,3.47,14.09,3.47c3.13,0,5.55-.74,7.27-2.24,1.71-1.49,2.87-3.39,3.47-5.7s.63-4.92.11-7.83-1.38-5.93-2.57-9.06c-.15-.3-.22-.52-.22-.67s-.08-.3-.22-.45c-.15-.15-.22-.3-.22-.45-6.86-15.95-12.67-29.52-17.44-40.7-4.77-11.18-8.83-20.61-12.19-28.29-3.35-7.68-6.08-14.01-8.16-19.01-2.09-4.99-3.95-9.39-5.59-13.19s-3.17-7.3-4.58-10.51c-1.42-3.2-3.02-6.89-4.81-11.07l-.03.03Z"/>
<path class="cls-1" d="M1339.21,258.42c2.31-.89,4.06-2.27,5.26-4.14,1.19-1.86,1.97-4.28,2.35-7.27.37-2.98.56-6.48.56-10.51V90.7c-1.64-2.98-3.1-5.63-4.36-7.94-1.27-2.31-2.35-4.28-3.24-5.93-1.04-1.94-2.01-3.65-2.91-5.14h32.87c1.19,2.24,3.69,6.79,7.49,13.64,3.8,6.86,8.39,15.13,13.75,24.82,5.37,9.69,11.25,20.31,17.67,31.87,6.41,11.56,12.82,23.11,19.23,34.66,6.41,11.56,12.56,22.7,18.45,33.43,5.89,10.73,11.07,20.05,15.54,27.95V97.19c0-4.02-.19-7.53-.56-10.51-.37-2.98-1.16-5.4-2.35-7.27-1.19-1.86-2.94-3.24-5.26-4.14-2.31-.89-5.48-1.34-9.5-1.34v-2.24c4.47.15,8.24.26,11.29.34,3.05.08,5.89.11,8.5.11s5.29-.04,8.05-.11,6.07-.19,9.95-.34v2.24c-4.03,0-7.19.37-9.5,1.12s-4.06,2.01-5.26,3.8-1.98,4.21-2.35,7.27-.56,6.82-.56,11.29v145.13c1.64,2.98,3.13,5.67,4.47,8.05,1.34,2.39,2.46,4.4,3.35,6.04,1.04,1.94,2.01,3.73,2.91,5.37h-32.65c-1.79-3.28-4.73-8.61-8.83-15.99s-8.87-15.95-14.31-25.72c-5.44-9.76-11.29-20.35-17.55-31.75s-12.52-22.73-18.78-33.99c-6.26-11.25-12.27-22.06-18-32.43-5.74-10.36-10.77-19.42-15.09-27.17v142.23c0,4.33.18,7.94.56,10.85.37,2.91,1.15,5.22,2.35,6.93,1.19,1.72,2.94,2.94,5.26,3.69,2.31.75,5.48,1.12,9.5,1.12v2.24c-3.88-.15-7.19-.26-9.95-.34-2.76-.07-5.44-.11-8.05-.11s-5.44.04-8.5.11c-3.06.08-6.82.19-11.29.34v-2.24c4.03,0,7.19-.45,9.5-1.34h0Z"/>
<path class="cls-1" d="M2003.7,261.11c-4.77,0-9.21.04-13.31.11-4.1.08-7.64.19-10.62.34-3.58.15-6.79.3-9.62.45v-2.24c4.03,0,7.19-.45,9.5-1.34,2.31-.89,4.06-2.27,5.26-4.14,1.19-1.86,1.97-4.28,2.35-7.27.37-2.98.56-6.48.56-10.51V95.4c0-3.28-.15-6.22-.45-8.83-.3-2.61-.97-4.84-2.01-6.71-1.04-1.86-2.54-3.32-4.47-4.36-1.94-1.04-4.55-1.57-7.83-1.57v-2.24c6.41.45,11.74.78,15.99,1.01,4.25.22,8.31.33,12.19.33,4.17,0,8.5-.11,12.97-.33s10.14-.56,17-1.01v2.24c-3.28,0-5.89.49-7.83,1.45-1.94.97-3.43,2.35-4.47,4.14-1.04,1.79-1.72,3.99-2.01,6.6-.3,2.61-.45,5.48-.45,8.61v141.78c0,4.02.26,7.49.78,10.4.52,2.91,1.42,5.29,2.68,7.16,1.27,1.87,3.05,3.28,5.37,4.25,2.31.97,5.33,1.45,9.06,1.45v2.24c-5.22-.3-10.44-.52-15.65-.67-5.22-.15-10.21-.22-14.98-.22h-.01Z"/>
<path class="cls-1" d="M2178.8,188.51c4.32-2.38,7.94-5.48,10.85-9.28,2.91-3.8,5.55-8.39,7.94-13.75,11.63-28.92,22.06-55.16,31.31-78.72,4.02-9.99,7.94-19.86,11.74-29.63,3.8-9.76,7.27-18.63,10.4-26.61,3.13-7.97,5.77-14.65,7.94-20.01,2.16-5.37,3.47-8.72,3.91-10.06.15-.15.22-.3.22-.45h1.79l71.34,165.7c3.43,7.9,6.6,13.42,9.5,16.55s5.85,5.22,8.83,6.26v1.79c-5.81-.45-11-.74-15.54-.89-4.55-.15-8.98-.22-13.31-.22s-8.87.08-13.64.22c-4.77.15-10.29.45-16.55.89-7.46,0-13.61-1.9-18.45-5.7-4.85-3.8-9.02-8.5-12.52-14.09s-6.6-11.63-9.28-18.11c-2.68-6.49-5.59-12.41-8.72-17.78s-6.86-9.73-11.18-13.08c-4.33-3.36-9.77-4.81-16.32-4.36-1.94,5.07-3.84,9.95-5.7,14.65-1.87,4.7-3.58,9.06-5.14,13.08-1.57,4.02-2.98,7.6-4.25,10.73-1.27,3.13-2.28,5.67-3.02,7.6-2.09,5.52-2.43,10.62-1.01,15.32,1.42,4.7,5.33,8.02,11.74,9.95v1.79c-3.28-.3-6.11-.52-8.5-.67s-4.62-.22-6.71-.22c-2.83,0-5.59.08-8.27.22-2.68.15-5.81.37-9.39.67v-1.79h-.01ZM2250.36,38.68c-1.2,2.83-2.83,6.97-4.92,12.41-2.09,5.44-4.51,11.63-7.27,18.56s-5.7,14.28-8.83,22.03c-3.13,7.75-6.19,15.43-9.17,23.03,5.66-.15,10.88,1.19,15.65,4.02,4.92,3.28,8.98,7.79,12.19,13.53,3.2,5.74,6.22,11.74,9.06,18,1.94,4.33,3.99,8.72,6.15,13.19s4.73,8.5,7.72,12.07c2.98,3.58,6.48,6.52,10.51,8.83s8.72,3.47,14.09,3.47c3.13,0,5.55-.74,7.27-2.24,1.71-1.49,2.87-3.39,3.47-5.7.6-2.31.63-4.92.11-7.83-.52-2.91-1.38-5.93-2.57-9.06-.15-.3-.22-.52-.22-.67s-.08-.3-.22-.45c-.15-.15-.22-.3-.22-.45-6.86-15.95-12.67-29.52-17.44-40.7-4.77-11.18-8.83-20.61-12.19-28.29-3.35-7.68-6.08-14.01-8.16-19.01-2.09-4.99-3.95-9.39-5.59-13.19-1.64-3.8-3.17-7.3-4.58-10.51-1.42-3.2-3.02-6.89-4.81-11.07l-.03.03Z"/>
<g>
<path class="cls-1" d="M1632.26,94.59c0-13.56,2.35-26.16,7.04-37.79,4.7-11.63,11.22-21.62,19.57-29.97,8.35-8.35,18.23-14.91,29.63-19.68C1699.91,2.38,1712.32-.01,1725.73-.01s26.13,2.43,37.68,7.27c11.55,4.85,21.5,11.48,29.85,19.9,8.35,8.42,14.87,18.41,19.57,29.97,4.7,11.56,7.04,24.04,7.04,37.46s-2.43,25.72-7.27,37.34c-4.85,11.63-11.48,21.77-19.9,30.41-8.42,8.65-18.34,15.47-29.74,20.46-11.4,5-23.67,7.49-36.79,7.49s-26.09-2.46-37.57-7.38-21.39-11.66-29.74-20.24c-8.35-8.57-14.87-18.71-19.57-30.41-4.7-11.7-7.04-24.26-7.04-37.68h.01ZM1725.96,2.46c-11.93,0-21.99,2.57-30.19,7.71-8.2,5.14-14.91,11.96-20.13,20.46s-8.98,18.3-11.29,29.41-3.47,22.7-3.47,34.77,1.23,23.26,3.69,34.44c2.46,11.18,6.3,21.1,11.52,29.74,5.22,8.65,11.96,15.62,20.24,20.91,8.27,5.29,18.23,7.94,29.85,7.94s21.32-2.68,29.52-8.05c8.2-5.37,14.94-12.41,20.24-21.13,5.29-8.72,9.17-18.63,11.63-29.74,2.46-11.1,3.69-22.4,3.69-33.88s-1.2-23.22-3.58-34.33c-2.39-11.1-6.19-20.98-11.4-29.63-5.22-8.64-11.96-15.58-20.24-20.8-8.27-5.22-18.3-7.83-30.08-7.83h0Z"/>
<path class="cls-1" d="M1732.11,87.55c1.79,1.8,3.87,3.21,6.26,4.23,2.38,1.03,4.93,1.55,7.65,1.55-2.72,0-5.27.51-7.65,1.53-2.39,1.02-4.47,2.43-6.26,4.23-1.8,1.79-3.21,3.87-4.23,6.26-1.03,2.39-1.55,4.93-1.55,7.65,0-2.72-.51-5.27-1.53-7.65-1.02-2.38-2.43-4.47-4.23-6.26-1.79-1.8-3.87-3.21-6.26-4.23-2.39-1.02-4.93-1.53-7.65-1.53,2.72,0,5.27-.51,7.65-1.55,2.38-1.02,4.47-2.42,6.26-4.23,1.8-1.79,3.21-3.87,4.23-6.26s1.53-4.93,1.53-7.65c0,2.72.51,5.27,1.55,7.65,1.02,2.38,2.42,4.47,4.23,6.26Z"/>
</g>
</svg>