<svg width="100%" height="100%" xmlns="http://www.w3.org/2000/svg" viewBox="0 0 2560 766">
    <path d="M2475.23,350.47c.36-2.99.25-10.46-.31-22.42-.57-11.95-3.34-24.55-8.3-37.81-4.97-13.24-12.58-25.55-22.82-36.92-10.26-11.36-24.85-18.2-43.79-20.5-15.46-1.88-29.53.46-42.2,7-12.69,6.55-20.35,16.49-22.98,29.83-1.4,11.47,2.59,22.32,11.97,32.57,9.38,10.24,20.04,19.26,31.99,27.03,11.95,7.79,23.21,13.96,33.78,18.53,10.56,4.58,16.1,6.89,16.6,6.95,29.87,12.24,52.94,26.3,69.22,42.19,16.27,15.9,28.11,31.87,35.51,47.95,7.4,16.07,11.48,31.36,12.25,45.87.76,14.51.54,26.75-.67,36.71-1.21,9.98-4.45,21.97-9.69,36-5.25,14.04-14.18,27.1-26.78,39.23-12.61,12.12-29.33,21.73-50.16,28.8-20.85,7.08-47.46,8.64-79.86,4.7-27.42-3.34-51.44-9.67-72.04-19.01-20.62-9.34-37.63-20.25-51.02-32.76-13.4-12.5-23.12-26.2-29.14-41.1-6.04-14.89-8.16-29.56-6.4-44.02,1.64-13.46,5.83-25.09,12.59-34.89,6.75-9.8,14.43-17.84,23.04-24.13,8.6-6.28,17.23-10.67,25.88-13.16,8.65-2.48,15.46-3.43,20.45-2.82,6.47.79,12.21,2.51,17.21,5.13,4.99,2.64,9.32,5.44,13.01,8.41,4.12,3.54,7.71,7.27,10.78,11.17-11.31,9.76-19.9,20.09-25.78,31.01-5.88,10.93-9.49,21.87-10.82,32.83-1.33,10.97-.61,21.55,2.21,31.75,2.8,10.21,7.36,19.49,13.68,27.84,6.31,8.36,13.82,15.22,22.53,20.57,8.7,5.36,18.29,8.67,28.76,9.95,14.95,1.82,26.89.37,35.81-4.37,8.92-4.72,15.79-10.34,20.64-16.84,4.83-6.49,7.99-12.68,9.47-18.57,1.48-5.89,2.27-9.33,2.4-10.33,2.85-23.42.28-42.83-7.71-58.22-7.99-15.39-17.25-27.63-27.77-36.76-10.53-9.12-24.96-17.32-43.29-24.61-26.19-9.26-46.28-19.79-60.26-31.61-14-11.82-24.34-23.45-31.04-34.88-6.7-11.44-10.5-21.88-11.36-31.35-.88-9.46-1-16.68-.4-21.67,2.24-18.43,7.14-33.77,14.7-46.01,7.56-12.23,16.25-22.42,26.1-30.59,9.84-8.16,20.33-14.34,31.47-18.55,11.13-4.2,21.35-7.14,30.66-8.79,9.31-1.64,17.25-2.57,23.86-2.79,6.59-.21,10.15-.28,10.65-.22l20.93,2.55c28.9,3.52,52.79,8.83,71.66,15.93,18.86,7.11,33.56,15.08,44.13,23.96,10.55,8.87,17.63,18.21,21.25,28,3.61,9.81,4.87,19.18,3.78,28.15-1.58,12.97-5.84,23.07-12.79,30.31-6.95,7.25-14.57,12.64-22.83,16.19-8.28,3.55-16.24,5.61-23.89,6.2-7.66.59-12.98.7-15.97.33l-7.48-.91c-1-.12-1.72-.46-2.15-1.02l.73-5.98ZM2059.96,358.49l-6.89,292.14c-.76,32.23,24.75,58.97,56.98,59.73h0c32.23.76,58.97-24.75,59.73-56.98l6.89-292.14c.76-32.23-24.75-58.97-56.98-59.73h0c-32.23-.76-58.97,24.75-59.73,56.98ZM1158.53,272.28c-.72-9.01-1.35-20.03-1.89-33.09-.55-13.05,1.14-26.66,5.05-40.83,3.9-14.16,11.19-28.59,21.85-43.3,10.66-14.7,26.7-28.32,48.12-40.86,21.41-12.54,49.36-23.59,83.86-33.14,33.15-9.18,74.41-15.87,123.78-20.07,3.32-.28,6.26,2.2,6.52,5.53l44,551.04c.26,3.32-2.21,6.22-5.53,6.49l-93.84,7.49c-3.32.26-6.22-2.21-6.49-5.53l-16.19-202.71c-.26-3.32-3.17-5.79-6.49-5.53l-104.92,8.38c-4.13.33-6.71,4.64-5.04,8.43,5.01,11.32,9.99,22.23,14.94,32.71,6.06,12.87,11.87,27.27,17.42,43.19,5.55,15.93,10.39,34.05,14.54,54.37,3.84,18.88,6.89,41.29,9.13,67.24.29,3.32-2.2,6.25-5.53,6.52l-107.34,8.57c-3.32.26-6.22-2.21-6.49-5.53l-29.49-369.37ZM1365.03,388.77l-22.24-278.53c-.26-3.32-3.17-5.79-6.49-5.53h0c-4.51.36-11.11,1.27-19.81,2.72-8.7,1.45-18.3,4.23-28.8,8.34-10.51,4.12-21.02,9.74-31.52,16.87-10.52,7.14-19.96,16.59-28.34,28.33-8.39,11.75-14.81,26-19.26,42.71-4.46,16.73-5.77,36.61-3.93,59.62,2.6,32.54,7.19,60.25,13.82,83.14,6.07,21.01,12.22,39.16,18.48,54.43.99,2.42,3.44,3.89,6.04,3.68l116.51-9.3c3.32-.26,5.79-3.17,5.53-6.49ZM1654.72,397.02c8.22-10.35,19.2-20.34,32.91-29.97,13.71-9.62,30.04-17.62,49.01-24,18.96-6.37,40.94-8.46,65.96-6.24,12.44,1.1,24.94,3.35,37.51,6.74,4.94,1.33,7.54,6.76,5.52,11.46l-68.74,159.45c-3.38,7.85-14.94,6.21-16.04-2.26-.92-7.12-2.17-14-3.74-20.64-3.26-14.4-8.63-27.73-16.11-39.99-7.49-12.25-18.23-19.01-32.23-20.25-5.86-.52-12.57.33-20.12,2.54-.35.1-.7.22-1.04.36-7.15,2.89-14.17,7.22-21.08,13.01-6,5.02-12.3,12.14-18.91,21.38-6.48,9.04-12.38,21.14-17.7,36.31-.24.67-.39,1.39-.45,2.1l-19.74,222.37c-.41,4.62-4.49,8.04-9.12,7.63l-100.28-8.9c-4.62-.41-8.04-4.49-7.63-9.12l35.34-398.11c.41-4.62,4.49-8.04,9.12-7.63l100.28,8.9c4.62.41,8.04,4.49,7.63,9.12l-5.34,60.2c-.73,8.21,9.64,12.33,14.76,5.88.08-.1.16-.21.25-.31ZM345.55,90.42c-1.25,15.7-4.6,29.06-10.06,40.09-5.46,11.03-12.27,19.8-20.43,26.28-8.16,6.49-17.07,11.14-26.71,13.93-9.66,2.8-19.29,3.82-28.9,3.06-11.65-.92-22.62-3.95-32.91-9.11-10.29-5.14-18.65-12.3-25.05-21.48-11.97-16.24-24.62-28.57-37.95-37.02-13.35-8.44-25.08-13.07-35.2-13.88-16.71-1.33-25.77,6.88-27.17,24.6-.44,5.58.67,10.88,3.32,15.93,2.66,5.06,7.28,10.9,13.9,17.54,6.6,6.64,15.69,14.12,27.27,22.42,11.57,8.31,26.09,18,43.55,29.06,20.8,13.88,43.14,30.94,67.02,51.18,23.87,20.24,45.66,42.6,65.38,67.1,19.71,24.49,35.61,50.48,47.7,77.92,12.08,27.46,17.01,55.37,14.76,83.72-.32,4.06-.63,7.98-.93,11.77-.3,3.8-1.12,7.68-2.45,11.65-7.52,30.49-19.16,53.64-34.94,69.46-15.78,15.83-33.48,27.03-53.11,33.62-19.63,6.6-40.14,9.81-61.53,9.64-21.39-.17-41.2-.98-59.43-2.42-22.29-1.77-41.16-4.79-56.6-9.08-15.46-4.28-28.65-9.78-39.58-16.52-10.93-6.72-20.5-14.62-28.69-23.68-8.2-9.06-15.94-19.23-23.19-30.5-7.3-10.77-13.37-25.77-18.21-45.01-4.85-19.23-6.42-39.49-4.73-60.76,1.21-15.19,5.19-30.16,11.97-44.91,6.77-14.75,16.07-27.64,27.91-38.68,11.83-11.03,26.26-19.57,43.3-25.61,17.03-6.03,36.44-8.19,58.22-6.46,10.12.8,17.99,2.84,23.59,6.08,5.59,3.25,10.03,6.79,13.3,10.61,3.73,4.38,6.15,9.16,7.27,14.33-7.68.42-16.64,4.16-26.88,11.24-10.25,7.09-20.32,16.73-30.19,28.94-9.89,12.21-18.43,26.7-25.61,43.45-7.19,16.76-11.57,35.01-13.13,54.75-1.93,24.31,3.32,44.86,15.75,61.63,12.43,16.79,36.07,27.07,70.93,30.85,21.27,1.69,38.08-1.57,50.45-9.76,12.37-8.19,21.76-17.5,28.2-27.95,6.43-10.44,10.64-20.17,12.63-29.19,1.98-9.02,3-13.77,3.04-14.28,1.86-29.91-2.38-56.75-12.72-80.5-10.34-23.75-23.81-45.19-40.37-64.35-16.57-19.14-34.82-36.51-54.72-52.11-19.91-15.59-38.76-30.21-56.52-43.85-14.43-10.82-25.63-22.29-33.58-34.38-7.96-12.1-13.68-23.5-17.16-34.23-3.49-10.71-5.51-20.56-6.07-29.53-.57-8.95-.66-15.72-.3-20.28,1.81-22.79,6.53-40.62,14.18-53.52,7.64-12.89,16.17-22.41,25.58-28.54,9.4-6.13,18.74-9.85,28.02-11.15,9.28-1.29,16.69-1.73,22.27-1.29,1.52.12,2.77.35,3.77.68.99.34,1.99.54,3.01.62l3.04.24,195.2,15.48c1.21,10.3,1.39,21.01.51,32.14ZM761.88,480.7c14.59,51.83,15.48,95.77,2.67,131.83-12.81,36.06-40,59.94-81.55,71.63-20.54,5.78-40.19,9.07-58.96,9.87-18.77.81-36.72-1.54-53.82-7.02-17.11-5.47-33.56-14.7-49.34-27.67-15.79-12.97-31.28-30.5-46.47-52.62-7.08-10.14-13.53-21.78-19.33-34.93-5.81-13.13-10.71-26.79-14.7-40.98-7.02-24.94-11.19-50.54-12.52-76.82-1.33-26.26.76-50.74,6.26-73.39,5.5-22.65,14.96-42.46,28.39-59.44,13.43-16.96,31.39-28.62,53.88-34.95,25.91-7.29,49.15-9.08,69.72-5.38,20.56,3.71,37.91,9.12,52.06,16.22,16.78,9,31.45,19.92,44.04,32.72l7.8,13.64c2.21,4.13,4.67,9.11,7.37,14.94,2.7,5.85,5.08,12.42,7.14,19.76,3.58,12.72,5.51,27.08,5.79,43.09.28,16.02-3.11,32.54-10.19,49.57-7.08,17.03-18.87,34.2-35.37,51.51-16.5,17.31-39.99,33.69-70.47,49.12,15.59,10.39,31.83,17.04,48.75,19.92,16.91,2.9,31.47,2.62,43.7-.82,15.64-4.4,28.5-12.64,38.56-24.7,10.06-12.06,17.79-24.4,23.22-37.01,6.34-14.97,10.79-31,13.38-48.09ZM485.78,351.81c-4.35,7.04-6.45,16.46-6.29,28.29.16,11.83,2.24,24.83,6.23,39.01,6.19,22,16.35,45,30.5,68.99,14.14,24,31.39,44.99,51.77,63,8.39-3.94,17.04-9.27,25.97-16.01,8.92-6.73,16.75-15.01,23.49-24.82,6.74-9.81,11.49-21.04,14.26-33.7,2.77-12.65,1.89-27.05-2.65-43.18-4.68-16.62-12.35-31.22-23.01-43.79-10.66-12.56-22.31-23.01-34.94-31.33-12.63-8.32-25.1-14.17-37.4-17.57-12.31-3.39-22.37-3.99-30.19-1.79-7.83,2.2-13.74,6.51-17.74,12.91ZM889.35,186.2l32.96,368.19c27.63-32.9,48.24-62.9,61.81-90.02,13.56-27.11,22.54-51.88,26.92-74.32,3.5-17.95,4.3-33.96,2.39-48.05-1.91-14.08-4.59-26.9-8.03-38.44-3.45-11.54-6.55-22.11-9.34-31.71-2.79-9.59-3.25-19.13-1.4-28.61,1.07-5.48,2.53-10.37,4.41-14.66,1.87-4.29,3.64-8.08,5.33-11.38,2.27-3.69,4.45-6.89,6.53-9.59l151.06,29.48-226.98,383.45-133.11-25.97-29.22-431.11,116.66,22.76ZM2036.3,605.05c-6.33-.66-13-3.18-20.03-7.58-7.03-4.39-13.61-11.95-19.72-22.68-6.13-10.72-10.33-27.84-12.62-51.35-1.08-10.5-2.27-25.26-3.56-44.31-1.3-19.03-2.64-41.34-4.04-66.91-1.18-21.55-2.32-44.49-3.39-68.83-1.08-24.33-2.2-49.29-3.34-74.87-.36-8.02-.72-15.97-1.08-23.93l85.69-8.32c7-.56,12.21-6.69,11.65-13.69l-5.08-63.24c-.56-7-6.69-12.21-13.69-11.65l-82.59,8.07c-1.97-42.31-4.85-103.44-5.43-114.07-.86-15.79-1.37-29.46-1.49-41.03,0-.14-.01-.27-.02-.41-.15-2.81-48.87,18.18-79.39,31.6-14.56,6.4-23.75,20.99-23.25,36.88l2.98,95.59-87.4,8.4c-7,.56-12.21,6.69-11.65,13.69l5.08,63.24c.56,7,6.69,12.21,13.69,11.65l83.06-8.05,8.2,262.91c1.26,23.07,7.64,43.08,19.13,60.05,4.92,7.27,11.22,14.47,18.91,21.59,7.67,7.12,17.05,13.15,28.14,18.07,11.08,4.93,24.24,8.74,39.47,11.42,15.23,2.69,32.87,3.48,52.93,2.38,2-.11,4.64-.14,7.92-.06,3.27.07,6.52-.24,9.76-.91,3.23-.67,5.95-1.57,8.15-2.71,2.2-1.12,3.22-3.19,3.05-6.2-.16-3.01-2.11-6.17-5.8-9.49-3.17-2.84-7.92-4.59-14.24-5.26Z"/>
</svg>