<?xml version="1.0" encoding="UTF-8"?>
<svg id="Layer_1" data-name="Layer 1" xmlns="http://www.w3.org/2000/svg" viewBox="0 0 2560 501.33">
  <defs>
    <style>
      .cls-1 {
        fill: #e9272b;
      }

      .cls-1, .cls-2, .cls-3, .cls-4 {
        stroke-width: 0px;
      }

      .cls-2 {
        fill: #000;
      }

      .cls-3 {
        fill: #00387c;
      }

      .cls-4 {
        fill: #0c56c1;
      }
    </style>
  </defs>
  <polygon class="cls-2" points="850.45 239.35 850.45 265.37 824 265.37 824 273.76 850.45 273.76 850.45 299.63 859.41 299.63 859.41 273.76 885.84 273.76 885.84 265.37 859.41 265.37 859.41 239.35 850.45 239.35"/>
  <rect class="cls-2" x="1626.49" y="265.13" width="166.16" height="8.73"/>
  <rect class="cls-2" x="1801.79" y="217.63" width="8.73" height="64.38" transform="translate(352.36 1350.31) rotate(-45)"/>
  <rect class="cls-2" x="1773.97" y="284.8" width="64.38" height="8.73" transform="translate(324.54 1361.84) rotate(-45)"/>
  <path class="cls-3" d="M1270.58,116.5l-.72,50.55s-49.04,14.41-58.81-13.05c0,0-29.31,17.41-38.2-11.53,0,0-24.76,4.24-24.51-13.49,0,0-27.08,3.68-30.26-17.87,0,0,64.77,2.97,86.92-2.24,22.16-5.21,32.44-12.61,44.3-9.53,11.88,3.07,5.55,18.68,21.27,17.16"/>
  <path class="cls-3" d="M1293.82,116.83l-.72,50.55s48.59,15.8,59.16-11.36c0,0,28.79,18.24,38.5-10.44,0,0,24.63,4.95,24.89-12.78,0,0,26.97,4.46,30.76-17.01,0,0-64.82,1.12-86.82-4.72-22.01-5.83-32.07-13.53-44.02-10.8-11.96,2.73-6.08,18.51-21.74,16.54"/>
  <path class="cls-3" d="M1303.21,84.7c.16-11.24-8.81-20.47-20.04-20.63-11.24-.16-20.47,8.82-20.63,20.05-.13,8.72,5.26,16.25,12.94,19.24l-1.67,116.92,14.23.2,1.68-116.92c7.76-2.77,13.36-10.13,13.49-18.87"/>
  <polygon class="cls-3" points="1287.54 255.94 1273.26 258.35 1273.51 282.19 1286.63 278.88 1287.54 255.94"/>
  <path class="cls-3" d="M1272.42,317.33l.51,20.06,12.27-4.19.28-20.05s-9.92,2.63-13.06,4.18"/>
  <path class="cls-3" d="M1271.36,437.48l-.13,8.58,2.26,25.31s.46,3.5,3.18,3.54c2.72.03,4.21-2.57,4.21-2.57l2.68-24.81.2-13.51s25.41,11.26,28.35,8.84c2.94-2.43-16.92-15.79-16.92-15.79,0,0-14.05,6.62-23.84,10.41"/>
  <path class="cls-3" d="M1304.93,395.83c-3.7,5.32-20.77,9.58-20.77,9.58,0,0-11.66,2.88-13.04,2.71l.65,10.33s10.41-6.25,12.34-9.41c7.64,4.33-14.16,14.47-22.96,20.02-8.8,5.54-19.79,12.2-18.23,14.55,1.57,2.35,24.25-8.66,33.7-12.74,9.45-4.07,31.16-11.61,31.32-22.5.16-10.9-3.02-12.54-3.02-12.54"/>
  <path class="cls-3" d="M1307.09,356.77s-7.34,4.98-22.35,8.1c0,0-10.36,3.19-13.08,5.48l-.12,8.27s9.84-2.91,13.09-6.21l.09-6.1s4.04,1.8,3.99,5.59c-.06,3.77-7.09,7.15-12.71,9.26-5.62,2.09-26.24,11.39-26.39,22.28-.16,10.91,13.23,19.95,13.23,19.95l5.14-3.61v-11.27s1.09-4.64,6.64-5.57c5.54-.94,30-5.09,34.58-20.43,4.57-15.34-2.1-25.75-2.1-25.75"/>
  <path class="cls-3" d="M1251.56,389.61s9-7.56,16.27-9.86c0,0-4.97-8.06.18-12.2,5.14-4.14,35.33-11.7,43.12-17.99,7.79-6.28,23.26-20.73,1.38-45.46,0,0-11.4,4.63-27.01,9.05v1.02s12.69,5.69,13.18,12.1c.49,6.4-9.41,12.79-20.09,15.7-10.68,2.9-28.63,8.45-33.32,21.02-4.68,12.58-.46,21.51,6.31,26.61"/>
  <path class="cls-3" d="M1271.47,338.1s-19.11,5.54-22.53,11.29c0,0-16.72-9.54-16.5-24.79.22-15.26,21.49-29.78,42.36-36.16,20.88-6.38,29.1-12.37,29.24-22.1.14-9.74-7.41-10.28-7.41-10.28,0,0,25.31-2.11,31.78-7.1,0,0,6.15,6.62,5.92,22.74-.23,16.13-22.05,27.3-36.35,32.18-14.31,4.89-36.9,9.51-37.04,19.67-.15,10.17,10.54,14.54,10.54,14.54"/>
  <path class="cls-3" d="M1270.07,283.44s-20.94,7.98-25.7,12.71c0,0-19.53-9.72-19.29-26.43.24-16.71,10.75-29.93,25.23-36.98,14.49-7.07,24.36-6.78,42.83-7.53,18.47-.75,47.06-8.77,47.92-18.06.86-9.29-9.34-7.11-12.26-5.69-2.94,1.4-11.81,12.61-26.55,6.44-14.73-6.17-.82-23.4,5.91-26.79,6.73-3.38,28.95-2.49,41.36,3.78,12.41,6.28,18.71,23.22,8.05,36.59-10.65,13.36-32.22,27.58-59.41,28.79-27.19,1.21-41.89,3.18-42.62,13.63-.73,10.45,8.9,17.27,14.54,19.53"/>
  <path class="cls-3" d="M1260.19,223s-20.71,5.52-29.75,17.01c0,0-31.78-12.37-32.02-36.5-.23-24.12,28.85-25.51,35.24-25.61,6.4-.09,20.08-1.78,27.07,6.89,7,8.67,6.69,19.86-.3,21.21-6.99,1.35-16.6,2.52-21.9-2.2-5.32-4.73-6.47-5.47-10.24-5.53-3.79-.05-8.29-.25-7.79,5.71.51,5.96,8.52,13.92,39.69,19.02"/>
  <path class="cls-4" d="M2374.91,203.71c-.48.15-1,.24-1.44.47-2.85,1.57-5.67,3.2-8.53,4.77-18.28,10.07-37.28,18.64-56.49,26.73-10.81,4.55-21.71,8.91-32.66,13.13-9.76,3.76-14.59,5.21-24.4,8.83-.24.09-15.05,4.93-19.72,6.48l-80.44,24.82-18.1,6.03c-5.21,1.77-10.36,3.72-15.59,5.4-9.75,3.13-19.54,6.13-29.32,9.15-1.26.39-2.58.64-4.25,1.04.53-2.59.93-4.76,1.41-6.92,1.55-6.88,3.07-13.78,4.72-20.65,2.11-8.78,4.35-17.52,6.51-26.28,2.08-8.43,4.03-16.9,6.23-25.3,1.82-6.96,3.86-13.86,5.91-20.75,2.76-9.31,5.51-18.62,8.5-27.85,2.22-6.84,4.68-13.6,7.31-20.3,3.91-9.98,8.07-19.85,12.13-29.77l7.86-16.87c3.54-6.7,6.47-13.75,10.33-20.27,2.74-4.63,8.63-43.06,8.16-53.24-.04-.81-.56-1.88-1.21-2.34-5.98-4.23-12.04-8.36-18.1-12.48-.71-.49-1.53-.93-2.36-1.09-.46-.09-1.36.28-1.54.67-2.99,6.69-5.99,13.38-8.81,20.15-4.01,9.66-7.96,19.35-11.79,29.07-6.89,17.5-13.8,35.01-20.46,52.6-4.21,11.11-8.13,22.34-11.94,33.6-6.42,18.98-12.81,37.96-18.9,57.05-4.53,14.23-8.61,28.6-12.79,42.94-3.01,10.36-5.97,20.75-8.73,31.19-2.34,8.86-4.36,17.79-6.48,26.7-.35,1.46-1,2.48-2.6,2.72-.66.1-1.3.39-1.94.6-16.7,5.46-33.44,10.81-50.09,16.42-8.28,2.79-16.43,6-24.57,9.23-1.36.54-2.7,1.93-3.4,3.26-3.21,6.16-5.76,12.59-7.1,19.45-1.24,6.36-.79,12.42,2.79,18.04,3.07,4.81,7.03,8.36,13.08,7.79,4.84-.45,9.78-1.12,14.4-2.56,16.07-4.99,32.02-10.36,48.02-15.58.8-.26,1.62-.47,2.64-.76-.05.79-.03,1.26-.11,1.71-1.71,9.69-3.6,19.35-5.13,29.07-1.9,12.06-3.68,24.15-5.16,36.28-.56,4.6-.58,9.37-.06,13.98.48,4.32,3.84,7.73,8.16,8.24,3.2.38,6.61.45,9.78-.16,6.48-1.24,12.13-4.56,17.89-7.66,3.49-1.88,4.96-4.53,5.11-8.26.13-2.99.56-6.73.93-9.69,1.38-11.06,2.81-22.12,4.18-33.19,1.81-14.55,3.61-29.12,5.4-43.67.25-2.02,1.24-3.24,3.26-3.92,5.78-1.95,11.53-4.02,17.25-6.16,10.8-4.06,21.56-8.21,32.35-12.29.5-.19,1-.36,1.51-.54,5.29-2.29,10.81-4.13,15.99-5.92l38.74-14.65,61.81-23.27c6.4-2.41,12.62-5.27,18.6-8.58,8.86-4.89,15.11-8.53,23.32-13.42,8.34-4.96,16.63-10.03,24.71-15.4,8.53-5.67,16.96-11.52,25.12-17.71,7.61-5.78,15.03-11.88,22.1-18.3,5.7-5.18,10.81-11.03,16.03-16.71,1.15-1.25,1.69-3.06,2.5-4.61-.18-.14-.36-.29-.54-.42v-.05Z"/>
  <path class="cls-3" d="M2039.99,109.01c3.16,21.5,30.19,17.83,30.19,17.83-.16,10.8,9,13.43,16.15,13.83,4.24-10.2,8.18-20.86,12.43-31.14-26.68.95-58.76-.52-58.76-.52h0Z"/>
  <path class="cls-3" d="M2194.85,164.82l.72-50.43c-15.68,1.51-9.37-14.05-21.22-17.12-4.74-1.23-7.5-.5-12.59.81l-24.95,55.3c11.06,25.23,58.03,11.43,58.03,11.43h0Z"/>
  <path class="cls-3" d="M2284.36,108.99c-21.95-5.82-31.99-13.5-43.91-10.78-11.93,2.73-6.06,18.47-21.69,16.5l-.72,50.43s48.48,15.77,59.02-11.33c0,0,28.72,18.2,38.41-10.41,0,0,24.57,4.93,24.82-12.75,0,0,26.9,4.45,30.69-16.96,0,0-64.67,1.11-86.61-4.71h0Z"/>
  <path class="cls-3" d="M2200.47,101.29l-1.67,116.64,14.2.21,1.67-116.64c7.75-2.76,13.33-10.11,13.46-18.82.16-11.21-8.79-20.42-20-20.58-11.21-.16-20.42,8.8-20.58,20-.12,8.71,5.26,16.21,12.92,19.2h0Z"/>
  <polygon class="cls-3" points="2212.5 253.49 2198.26 255.89 2198.34 264.47 2212.25 259.71 2212.5 253.49"/>
  <polygon class="cls-3" points="2197.92 331.64 2210.16 327.46 2210.23 322.51 2197.81 327.12 2197.92 331.64"/>
  <path class="cls-3" d="M2220.13,421.1s-14.02,6.61-23.78,10.38l-.12,8.56,2.26,25.25s.45,3.49,3.18,3.53c2.71.04,4.2-2.56,4.2-2.56l2.67-24.75.19-13.47s25.35,11.23,28.28,8.81c2.94-2.42-16.87-15.75-16.87-15.75h0Z"/>
  <path class="cls-3" d="M2232.86,402.43c.16-10.88-3.01-12.51-3.01-12.51-3.69,5.31-20.72,9.56-20.72,9.56,0,0-11.63,2.88-13,2.71l.64,10.31s10.38-6.23,12.31-9.39c7.62,4.31-14.12,14.43-22.9,19.97-8.78,5.52-19.74,12.18-18.18,14.52,1.56,2.34,24.19-8.64,33.62-12.71,9.43-4.06,31.09-11.58,31.24-22.45h.01Z"/>
  <path class="cls-3" d="M2200.99,375.31c-5.61,2.09-26.17,11.36-26.33,22.23-.16,10.88,13.2,19.9,13.2,19.9l5.13-3.61v-11.25s1.09-4.63,6.62-5.56c5.52-.94,29.92-5.08,34.49-20.38,4.56-15.3-2.09-25.69-2.09-25.69,0,0-7.32,4.96-22.3,8.08,0,0-10.33,3.19-13.05,5.47l-.12,8.26s9.82-2.9,13.05-6.18l.09-6.08s4.03,1.79,3.98,5.57c-.06,3.76-7.07,7.13-12.68,9.23Z"/>
  <path class="cls-3" d="M2223.59,320.55c.49,6.38-9.38,12.77-20.05,15.66-10.66,2.89-28.57,8.43-33.24,20.97-4.67,12.55-.45,21.45,6.29,26.54,0,0,8.98-7.54,16.23-9.83,0,0-4.96-8.05.18-12.18,5.13-4.13,35.24-11.67,43.02-17.94,6.52-5.26,18.39-16.27,9.16-34.24l-22.48,8.35c.49.86.83,1.76.89,2.66h0Z"/>
  <path class="cls-3" d="M2221.55,253.62s2.25,1.28,4.12,2.64l28.33-8.56c-.3-.42-.74-1.16-.74-1.16-6.46,4.98-31.7,7.08-31.7,7.08h0Z"/>
  <path class="cls-3" d="M2173.98,343.61c3.42-5.74,22.48-11.26,22.48-11.26,0,0-2.28-.97-4.71-2.97l-24.52,9.1c3.56,3.31,6.74,5.13,6.74,5.13h0Z"/>
  <path class="cls-3" d="M2274.32,182.62c-12.38-6.26-34.54-7.16-41.26-3.78-6.71,3.39-20.58,20.58-5.89,26.73,14.7,6.16,23.55-5.03,26.48-6.43,2.91-1.41,13.09-3.59,12.23,5.68-.85,9.27-29.38,17.27-47.8,18.02-18.43.75-28.27.46-42.73,7.51-14.45,7.03-24.93,20.22-25.17,36.89-.06,4.1,1.09,7.76,2.84,10.98l27.34-8.26,1.75-.56c-1.12-2.35-1.74-5.01-1.54-7.96.73-10.43,15.4-12.39,42.51-13.6,27.13-1.2,48.64-15.4,59.27-28.72,10.63-13.33,4.34-30.23-8.03-36.5h0Z"/>
  <path class="cls-3" d="M2185.21,220.63c-31.09-5.08-39.09-13.03-39.59-18.97-.49-5.96,3.99-5.75,7.77-5.7,3.76.06,4.91.8,10.21,5.51,5.29,4.71,14.88,3.54,21.85,2.2,6.98-1.34,7.28-12.5.3-21.16-6.98-8.65-20.62-6.96-27.01-6.87-6.38.1-35.39,1.49-35.16,25.55.24,24.07,31.95,36.4,31.95,36.4,9.01-11.47,29.67-16.97,29.67-16.97h0Z"/>
  <path class="cls-1" d="M483.43,282.98c3.31-.97,6.3-1.77,9.21-2.76.4-.14.71-1.24.68-1.88-.27-5.75-.65-11.5-.96-17.25-.64-12.17-1.22-24.35-1.9-36.53-.56-9.94-1.25-19.87-1.83-29.81-.5-8.51-.9-17.04-1.42-25.55-.57-9.32-1.24-18.64-1.84-27.97-.61-9.39-1.13-18.79-1.78-28.18-.86-12.36-1.84-24.7-2.69-37.06-.31-4.52-.37-9.07-.62-13.6-.3-5.47-.7-10.94-1.04-16.41-.04-.65,0-1.3,0-2.3.83.36,1.33.49,1.74.76,5.55,3.63,10.92,7.6,16.7,10.81,3.38,1.88,3.9,4.44,4.23,7.7,1.24,11.98,2.74,23.94,3.96,35.92.79,7.81,1.2,15.66,1.92,23.48.56,6.06,1.43,12.09,2.04,18.15.85,8.42,1.54,16.85,2.38,25.27.99,9.97,2.11,19.92,3.08,29.89.67,6.94,1.14,13.9,1.74,20.85.88,10.19,1.8,20.37,2.69,30.56.61,7.02,1.22,14.04,1.76,21.06.13,1.68.59,2.34,2.37,1.68,1.77-.66,3.67-.99,5.42-1.68.52-.2,1.13-1.17,1.06-1.72-1.43-11.69-2.96-23.37-4.46-35.05-2.19-17.05-4.33-34.1-6.58-51.13-1.76-13.28-3.7-26.53-5.47-39.81-.97-7.24-1.71-14.51-2.65-21.76-.73-5.56-1.68-11.1-2.4-16.67-.87-6.71-1.56-13.44-2.39-20.15-.72-5.91-1.53-11.81-2.28-17.71-.13-1.05-.19-2.11-.32-3.66,2.12,1.41,3.86,2.51,5.55,3.69,4.84,3.36,9.64,6.78,14.5,10.11,1.67,1.15,2.41,2.5,2.62,4.64.83,8.29,1.84,16.56,3.04,24.8,1.63,11.18,3.41,22.35,5.3,33.49,2.48,14.61,5.1,29.19,7.71,43.78,2.36,13.2,4.7,26.4,7.2,39.58,2.37,12.5,4.98,24.96,7.41,37.45.32,1.66.96,1.96,2.47,1.4,9.78-3.61,19.63-7.03,29.36-10.78,10.92-4.21,21.78-8.55,32.57-13.09,19.16-8.07,38.1-16.61,56.33-26.65,2.84-1.57,5.66-3.19,8.5-4.76.43-.24.95-.32,1.43-.47.18.14.36.28.54.42-.82,1.55-1.35,3.35-2.49,4.6-5.21,5.67-10.3,11.49-15.98,16.66-7.05,6.42-14.45,12.49-22.04,18.26-8.13,6.18-16.54,12.01-25.05,17.67-8.06,5.35-16.33,10.4-24.64,15.35-10.76,6.41-21.77,12.37-33.41,17.06-1.55.63-2.29,1.41-2.07,3.16,1.04,8.33,1.96,16.68,3.03,25.01,1.7,13.23,3.5,26.45,5.23,39.67,1.39,10.54,2.88,21.07,4.08,31.63,1.53,13.46,2.97,26.94,4.12,40.44.59,6.87.43,13.81.67,20.72.06,1.7-.76,2.82-1.96,3.79-3.46,2.82-7.37,4.79-11.59,6.16-1.48.48-2.97.95-4.46,1.41-3.95,1.22-7.91.92-11.46-.99-3.83-2.07-5.77-5.77-5.91-10.05-.25-8.06.09-16.14-.29-24.19-.87-18.95-1.88-37.89-3.11-56.81-.87-13.45-2.13-26.87-3.35-40.29-.56-6.13-1.44-12.23-2.16-18.35-.24-2.02-.5-4.04-.64-6.06-.1-1.41-.65-1.81-1.96-1.28-1.57.63-3.12,1.35-4.75,1.79-1.86.5-2.21,1.69-2.09,3.36.36,5.41.66,10.82.99,16.23,1.12,18.39,2.62,36.76,3.27,55.16.63,17.8.42,35.64.49,53.46.02,5.69-.25,11.38-.36,17.07-.03,1.69-.71,2.86-2.04,3.96-5.16,4.26-10.93,7.28-17.42,8.8-3.44.8-6.91,1.07-10.3-.69-4.62-2.4-7.05-6.05-6.76-11.27.32-5.88.87-11.75,1.24-17.63.66-10.61,1.66-21.23,1.78-31.85.27-23.11.11-46.22.07-69.33,0-4.54-.31-9.07-.41-13.61-.03-1.44-.63-1.86-1.91-1.32-2.99,1.27-6,2.49-8.91,3.93-.66.33-1.26,1.44-1.31,2.23-.33,5.14-.53,10.28-.71,15.43-.57,16.79-1.01,33.59-1.67,50.38-.71,18.15-1.59,36.28-2.41,54.42-.04.88-.34,1.77-.24,2.63.52,4.41-2.17,6.68-5.54,8.55-6.39,3.54-13.09,6.17-20.38,7.18-3.49.48-6.9.47-10.04-1.44-2.86-1.74-4.69-4.24-4.6-7.62.24-8.33.58-16.65,1.07-24.96.47-7.91,1.22-15.8,1.81-23.7.7-9.45,1.33-18.91,2.06-28.37.83-10.6,1.74-21.19,2.6-31.79.22-2.75.39-5.5.62-8.69-3.01,1.02-5.77,1.87-8.46,2.89-10.76,4.06-21.49,8.21-32.26,12.25-5.7,2.14-11.43,4.21-17.2,6.15-2.02.68-3,1.89-3.25,3.91-1.79,14.52-3.57,29.04-5.39,43.55-1.4,11.22-2.85,22.44-4.25,33.66-.36,2.89-.79,5.79-.84,8.69-.07,3.94-1.51,6.7-5.11,8.65-5.73,3.09-11.38,6.41-17.84,7.64-2.94.56-6.08.54-9.08.23-4.52-.47-8.3-3.78-8.8-8.29-.51-4.59-.49-9.35.07-13.93,1.48-12.09,3.25-24.15,5.15-36.18,1.53-9.69,3.4-19.33,5.12-28.99.08-.45.06-.91.11-1.7-1.01.29-1.83.5-2.63.76-15.96,5.21-31.86,10.56-47.89,15.54-4.61,1.43-9.53,2.1-14.36,2.55-6.03.56-9.98-2.97-13.04-7.77-3.58-5.6-4.01-11.65-2.78-17.99,1.33-6.85,3.88-13.26,7.08-19.4.69-1.33,2.03-2.71,3.39-3.25,8.11-3.22,16.24-6.41,24.5-9.2,16.6-5.6,33.29-10.93,49.95-16.37.64-.21,1.28-.49,1.94-.6,1.59-.25,2.24-1.26,2.59-2.71,2.12-8.89,4.14-17.8,6.47-26.63,2.75-10.41,5.7-20.76,8.7-31.1,4.16-14.3,8.23-28.63,12.75-42.82,6.07-19.03,12.44-37.96,18.85-56.89,3.8-11.23,7.71-22.42,11.91-33.5,6.65-17.54,13.53-34.99,20.4-52.45,3.82-9.7,7.75-19.36,11.75-28.99,2.81-6.75,5.8-13.42,8.78-20.1.18-.39,1.07-.76,1.53-.67.83.17,1.64.61,2.35,1.09,6.04,4.11,12.08,8.23,18.05,12.45.64.46,1.17,1.52,1.2,2.33.46,10.15.84,20.3,1.19,30.46.32,9.34.55,18.69.86,28.03.52,15.57,1.05,31.14,1.61,46.71.52,14.49,1.17,28.97,1.59,43.45.64,21.81,1.18,43.62,1.66,65.43.17,7.99.03,15.99.04,23.98v2.13ZM451.7,131.07c-.17-.03-.34-.06-.5-.09-.34.65-.73,1.28-1,1.96-4.05,9.89-8.2,19.74-12.1,29.69-2.62,6.67-5.08,13.43-7.29,20.25-2.99,9.2-5.72,18.49-8.48,27.77-2.04,6.88-4.07,13.76-5.89,20.7-2.19,8.38-4.14,16.82-6.21,25.23-2.16,8.74-4.39,17.46-6.49,26.21-1.65,6.85-3.16,13.72-4.71,20.59-.48,2.15-.89,4.31-1.41,6.9,1.67-.4,2.98-.65,4.24-1.04,9.76-3.02,19.52-6.01,29.24-9.13,5.22-1.67,10.35-3.62,15.54-5.38,1.79-.61,2.51-1.67,2.47-3.63-.06-3.31.21-6.63.29-9.95.68-29.94,1.45-59.87,1.98-89.81.3-16.93.23-33.87.32-50.81.02-3.15,0-6.3,0-9.46"/>
</svg>