<svg width="100%" height="100%" xmlns="http://www.w3.org/2000/svg" viewBox="0 0 3660.55 800">
<g>
<path class="cls-1" d="M726.06,337.39c-.68.22-1.43.33-2.04.67-4.07,2.24-8.09,4.56-12.16,6.8-26.07,14.36-53.15,26.58-80.55,38.11-15.42,6.49-30.96,12.7-46.57,18.72-13.91,5.36-20.81,7.44-34.79,12.59-.34.12-21.47,7.03-28.13,9.24l-114.71,35.4-25.82,8.59c-7.42,2.53-14.76,5.3-22.23,7.7-13.9,4.46-27.87,8.73-41.82,13.05-1.8.56-3.67.9-6.06,1.48.75-3.7,1.33-6.79,2.02-9.87,2.21-9.82,4.37-19.65,6.73-29.44,3.01-12.51,6.2-24.98,9.28-37.48,2.96-12.02,5.75-24.09,8.88-36.07,2.59-9.92,5.5-19.76,8.42-29.6,3.94-13.27,7.85-26.55,12.12-39.71,3.17-9.75,6.68-19.4,10.43-28.95,5.59-14.22,11.51-28.31,17.31-42.45l11.2-24.05c5.04-9.55,9.23-19.61,14.73-28.91,3.9-6.6,12.3-61.4,11.64-75.92-.05-1.15-.8-2.68-1.72-3.33-8.54-6.03-17.17-11.92-25.81-17.8-1.02-.69-2.18-1.32-3.37-1.56-.66-.14-1.94.39-2.19.96-4.27,9.54-8.54,19.08-12.56,28.74-5.72,13.77-11.35,27.58-16.81,41.46-9.83,24.96-19.67,49.91-29.17,75-6,15.85-11.6,31.85-17.03,47.91-9.15,27.06-18.27,54.13-26.95,81.34-6.47,20.29-12.29,40.78-18.24,61.23-4.3,14.78-8.52,29.59-12.45,44.47-3.33,12.63-6.22,25.37-9.25,38.08-.5,2.09-1.43,3.53-3.7,3.88-.95.15-1.85.55-2.77.85-23.82,7.78-47.69,15.41-71.43,23.41-11.81,3.99-23.44,8.56-35.03,13.16-1.95.77-3.85,2.75-4.84,4.65-4.57,8.79-8.22,17.95-10.12,27.74-1.76,9.06-1.13,17.71,3.98,25.72,4.38,6.86,10.03,11.91,18.64,11.11,6.91-.64,13.94-1.6,20.53-3.65,22.91-7.12,45.66-14.78,68.48-22.22,1.14-.37,2.31-.67,3.76-1.08-.07,1.12-.04,1.79-.15,2.43-2.45,13.81-5.13,27.59-7.32,41.45-2.71,17.2-5.25,34.44-7.36,51.73-.8,6.56-.83,13.36-.1,19.93.68,6.16,5.47,11.02,11.63,11.75,4.57.54,9.42.64,13.94-.22,9.23-1.77,17.31-6.51,25.51-10.93,4.97-2.68,7.06-6.45,7.29-11.78.18-4.26.8-9.59,1.32-13.82,1.97-15.78,4-31.55,5.97-47.32,2.59-20.75,5.14-41.51,7.7-62.27.36-2.88,1.76-4.61,4.65-5.59,8.25-2.78,16.44-5.73,24.59-8.79,15.4-5.78,30.74-11.72,46.13-17.52.71-.27,1.43-.52,2.15-.78,7.55-3.25,15.41-5.89,22.8-8.45l55.25-20.89,88.13-33.19c9.12-3.43,17.99-7.52,26.52-12.23,12.64-6.97,21.55-12.17,33.25-19.14,11.89-7.08,23.71-14.3,35.24-21.95,12.17-8.08,24.19-16.43,35.82-25.26,10.85-8.25,21.43-16.93,31.51-26.1,8.12-7.39,15.41-15.72,22.85-23.83,1.64-1.78,2.4-4.36,3.57-6.58-.26-.2-.51-.4-.77-.6Z"/>
<g>
<path class="cls-1" d="M248.49,202.36c4.51,30.67,43.04,25.42,43.04,25.42-.22,15.4,12.83,19.15,23.02,19.73,6.05-14.54,11.67-29.75,17.72-44.41-38.05,1.35-83.79-.75-83.79-.75Z"/>
<path class="cls-1" d="M469.31,281.94l1.03-71.91c-22.36,2.16-13.36-20.04-30.25-24.41-6.76-1.75-10.69-.71-17.96,1.17l-35.57,78.85c15.76,35.98,82.75,16.3,82.75,16.3Z"/>
<path class="cls-1" d="M596.95,202.33c-31.31-8.3-45.62-19.25-62.62-15.37-17,3.89-8.65,26.34-30.93,23.54l-1.03,71.91s69.13,22.48,84.15-16.16c0,0,40.96,25.95,54.78-14.85,0,0,35.04,7.04,35.4-18.18,0,0,38.36,6.34,43.76-24.19,0,0-92.21,1.59-123.51-6.71Z"/>
<path class="cls-1" d="M477.32,191.34l-2.38,166.32,20.25.29,2.38-166.33c11.05-3.94,19.01-14.42,19.19-26.83.23-15.98-12.54-29.12-28.51-29.35-15.98-.23-29.12,12.54-29.35,28.52-.17,12.41,7.5,23.12,18.42,27.37Z"/>
<polygon class="cls-1" points="494.47 408.39 474.16 411.81 474.29 424.03 494.12 417.26 494.47 408.39"/>
<polygon class="cls-1" points="473.69 519.81 491.14 513.85 491.24 506.8 473.52 513.37 473.69 519.81"/>
<path class="cls-1" d="M505.36,647.38s-19.99,9.43-33.91,14.81l-.18,12.2,3.21,36.01s.64,4.97,4.53,5.03c3.86.05,5.99-3.65,5.99-3.65l3.81-35.29.28-19.21s36.15,16.02,40.33,12.57c4.18-3.46-24.06-22.46-24.06-22.46Z"/>
<path class="cls-1" d="M523.5,620.77c.23-15.5-4.3-17.84-4.3-17.84-5.27,7.57-29.54,13.63-29.54,13.63,0,0-16.59,4.1-18.55,3.87l.92,14.69s14.8-8.89,17.56-13.39c10.86,6.15-20.14,20.58-32.66,28.47-12.52,7.88-28.15,17.37-25.92,20.71,2.23,3.34,34.49-12.32,47.94-18.12,13.44-5.8,44.33-16.51,44.55-32.01Z"/>
<path class="cls-1" d="M478.06,582.08c-7.99,2.98-37.32,16.21-37.55,31.7-.22,15.51,18.82,28.38,18.82,28.38l7.31-5.14.02-16.04s1.54-6.6,9.42-7.92c7.87-1.35,42.67-7.24,49.19-29.06,6.51-21.82-2.99-36.63-2.99-36.63,0,0-10.44,7.08-31.79,11.53,0,0-14.73,4.55-18.6,7.8l-.17,11.77s14.01-4.13,18.62-8.82l.12-8.67s5.76,2.56,5.68,7.94c-.08,5.37-10.08,10.17-18.07,13.17Z"/>
<path class="cls-1" d="M510.29,504c.7,9.1-13.38,18.2-28.58,22.33-15.2,4.12-40.73,12.02-47.4,29.91-6.66,17.89-.65,30.59,8.97,37.85,0,0,12.8-10.76,23.14-14.03,0,0-7.06-11.47.25-17.36,7.32-5.89,50.26-16.64,61.34-25.58,9.3-7.49,26.22-23.2,13.06-48.82l-32.06,11.9c.7,1.23,1.18,2.51,1.28,3.8Z"/>
<path class="cls-1" d="M507.38,408.57s3.21,1.82,5.87,3.77l40.4-12.21c-.42-.6-1.06-1.66-1.06-1.66-9.2,7.1-45.21,10.1-45.21,10.1Z"/>
<path class="cls-1" d="M439.55,536.88c4.88-8.19,32.06-16.06,32.06-16.06,0,0-3.25-1.39-6.72-4.24l-34.96,12.98c5.08,4.71,9.61,7.32,9.61,7.32Z"/>
<path class="cls-1" d="M582.62,307.33c-17.64-8.93-49.26-10.2-58.83-5.39-9.58,4.82-29.35,29.34-8.4,38.11,20.96,8.78,33.59-7.17,37.76-9.16,4.16-2.02,18.67-5.12,17.45,8.09-1.22,13.22-41.89,24.62-68.16,25.69-26.27,1.07-40.32.66-60.92,10.72-20.6,10.02-35.55,28.83-35.89,52.6-.08,5.84,1.56,11.07,4.05,15.65l38.98-11.78,2.5-.8c-1.6-3.35-2.49-7.14-2.2-11.34,1.04-14.87,21.95-17.67,60.63-19.39,38.68-1.71,69.36-21.95,84.51-40.95,15.15-19.01,6.19-43.11-11.46-52.05Z"/>
<path class="cls-1" d="M455.55,361.52c-44.34-7.25-55.74-18.57-56.46-27.05-.7-8.49,5.7-8.2,11.08-8.13,5.37.08,7,1.14,14.56,7.86,7.54,6.72,21.21,5.06,31.16,3.13,9.95-1.92,10.38-17.84.43-30.17-9.95-12.33-29.41-9.93-38.51-9.79-9.1.14-50.46,2.12-50.13,36.43.34,34.32,45.56,51.91,45.56,51.91,12.85-16.35,42.31-24.19,42.31-24.19Z"/>
</g>
</g>
<g>
<path class="cls-1" d="M1175.32,589.35l-1.08-172.58-82.23,138.49h-56.26l-82.23-132.54v166.63h-116.31V210.65h104.95l123.35,201.79,120.1-201.79h104.95l1.08,378.7h-116.31Z"/>
<path class="cls-1" d="M1668.17,493.05v96.3h-314.86V210.65h307.83v96.3h-182.32v44.36h160.13v91.97h-160.13v49.77h189.35Z"/>
<path class="cls-1" d="M1717.4,210.65h186.64c126.59,0,213.69,71.95,213.69,189.35s-87.1,189.35-213.69,189.35h-186.64V210.65ZM1898.63,489.8c53.56,0,90.35-31.92,90.35-89.8s-36.79-89.8-90.35-89.8h-53.56v179.61h53.56Z"/>
<path class="cls-1" d="M2148.03,267.3c0-35.16,28.67-62.21,73.57-62.21s73.57,24.89,73.57,60.05c0,37.33-28.67,64.38-73.57,64.38s-73.57-27.05-73.57-62.21ZM2160.47,366.15h122.26v223.2h-122.26v-223.2Z"/>
<path class="cls-1" d="M2325.47,400c0-116.31,89.26-198,210.99-198,74.12,0,132.54,27.05,169.87,75.74l-80.61,71.95c-22.18-28.13-48.69-44.36-82.77-44.36-53.02,0-88.72,36.79-88.72,94.67s35.7,94.67,88.72,94.67c34.08,0,60.59-16.23,82.77-44.36l80.61,71.95c-37.33,48.69-95.76,75.74-169.87,75.74-121.72,0-210.99-81.69-210.99-198Z"/>
<path class="cls-1" d="M2734.46,418.93v-208.28h127.67v204.5c0,57.89,22.18,79.53,57.89,79.53s57.89-21.64,57.89-79.53v-204.5h125.51v208.28c0,113.61-68.16,179.07-184.48,179.07s-184.48-65.46-184.48-179.07Z"/>
<path class="cls-1" d="M3138.05,559.05l41.12-93.05c35.71,21.1,83.31,34.62,124.97,34.62,36.25,0,49.23-7.57,49.23-20.56,0-47.61-209.37-9.2-209.37-150.4,0-70.33,58.97-127.67,176.36-127.67,50.85,0,103.33,10.82,142.82,33l-38.41,92.51c-37.33-18.93-72.49-28.13-105.49-28.13-37.33,0-49.23,10.82-49.23,23.8,0,45.44,209.36,7.57,209.36,147.15,0,69.25-58.97,127.67-176.36,127.67-63.3,0-127.13-15.69-165-38.95Z"/>
</g>
</svg>